<svg width="115" height="26" viewBox="0 0 115 26" fill="none" xmlns="http://www.w3.org/2000/svg">
<path fill-rule="evenodd" clip-rule="evenodd" d="M105.414 17.4138C103.781 18.8457 101.134 18.8457 99.5014 17.4138C97.8687 15.9819 97.8687 13.6603 99.5014 12.2284C101.134 10.7965 103.781 10.7965 105.414 12.2284C107.046 13.6603 107.046 15.9819 105.414 17.4138ZM105.916 18.7968C103.681 20.2962 100.471 20.1495 98.4264 18.3566C96.2001 16.404 96.2001 13.2382 98.4264 11.2856C100.653 9.33294 104.262 9.33294 106.489 11.2856C108.533 13.0783 108.7 15.8937 106.991 17.8539L111.058 21.4206L109.983 22.3635L105.916 18.7968Z" fill="#999999"/>
</svg>

